# xmcd
#
# Track frame offsets:
#	183
#	14868
#	26970
#	42835
#	52235
#	61680
#	72560
#	84910
#	98968
#	109937
#	129603
#	148065
#	164125
#	175718
#	195098
#	209963
#	232353
#	267888
#	278573
#
# Disc length: 4504 seconds
#
# Revision: 4
# Processed by: cddbd v1.5.2PL0 Copyright (c) Steve Scherf et al.
# Submitted via: audiograbber 1.83.01
#
DISCID=2b119613
DTITLE=The Paul Butterfield Blues Band - - The Elektra Years- An Anthology, cd 
DTITLE=1
DYEAR=1997
DGENRE=Blues
TTITLE0=Born In Chicago
TTITLE1=Lovin' Cup
TTITLE2=One More Mile
TTITLE3=Off The Wall
TTITLE4=Come On In
TTITLE5=Nut Popper #1
TTITLE6=Ain't No Need To Go No Further_It's Too Late Brother
TTITLE7=Born In Chicago
TTITLE8=Shake Your Money Maker
TTITLE9=Blues With A Feeling
TTITLE10=Thank You Mr. Poobah
TTITLE11=Our Love Is Driftin'
TTITLE12=Mystery Train
TTITLE13=Last Night
TTITLE14=Walkin' Blues
TTITLE15=I Got A Mind To Give Up Living
TTITLE16=Work Song
TTITLE17=All These Blues
TTITLE18=East West
EXTD=
EXTT0=
EXTT1=
EXTT2=
EXTT3=
EXTT4=
EXTT5=
EXTT6=
EXTT7=
EXTT8=
EXTT9=
EXTT10=
EXTT11=
EXTT12=
EXTT13=
EXTT14=
EXTT15=
EXTT16=
EXTT17=
EXTT18=
PLAYORDER=
